<mxfile host="Electron" agent="Mozilla/5.0 (Windows NT 10.0; Win64; x64) AppleWebKit/537.36 (KHTML, like Gecko) draw.io/28.1.2 Chrome/138.0.7204.243 Electron/37.4.0 Safari/537.36" version="28.1.2">
  <diagram id="qz2yU_KnszdpghtPeGSy" name="ページ1">
    <mxGraphModel dx="288" dy="676" grid="1" gridSize="10" guides="1" tooltips="1" connect="1" arrows="1" fold="1" page="1" pageScale="1" pageWidth="827" pageHeight="1169" math="0" shadow="0">
      <root>
        <mxCell id="0" />
        <mxCell id="1" parent="0" />
        <mxCell id="cExaiCOgp9dejYTTrhLU-4" value="" style="shape=umlLifeline;perimeter=lifelinePerimeter;whiteSpace=wrap;html=1;container=1;dropTarget=0;collapsible=0;recursiveResize=0;outlineConnect=0;portConstraint=eastwest;newEdgeStyle={&quot;curved&quot;:0,&quot;rounded&quot;:0};participant=umlActor;" vertex="1" parent="1">
          <mxGeometry x="110" y="50" width="20" height="300" as="geometry" />
        </mxCell>
        <mxCell id="cExaiCOgp9dejYTTrhLU-5" value="" style="html=1;points=[[0,0,0,0,5],[0,1,0,0,-5],[1,0,0,0,5],[1,1,0,0,-5]];perimeter=orthogonalPerimeter;outlineConnect=0;targetShapes=umlLifeline;portConstraint=eastwest;newEdgeStyle={&quot;curved&quot;:0,&quot;rounded&quot;:0};" vertex="1" parent="cExaiCOgp9dejYTTrhLU-4">
          <mxGeometry x="5" y="80" width="10" height="80" as="geometry" />
        </mxCell>
        <mxCell id="cExaiCOgp9dejYTTrhLU-6" value="" style="html=1;points=[[0,0,0,0,5],[0,1,0,0,-5],[1,0,0,0,5],[1,1,0,0,-5]];perimeter=orthogonalPerimeter;outlineConnect=0;targetShapes=umlLifeline;portConstraint=eastwest;newEdgeStyle={&quot;curved&quot;:0,&quot;rounded&quot;:0};" vertex="1" parent="cExaiCOgp9dejYTTrhLU-4">
          <mxGeometry x="5" y="210" width="10" height="80" as="geometry" />
        </mxCell>
        <mxCell id="cExaiCOgp9dejYTTrhLU-7" value="" style="shape=umlLifeline;perimeter=lifelinePerimeter;whiteSpace=wrap;html=1;container=1;dropTarget=0;collapsible=0;recursiveResize=0;outlineConnect=0;portConstraint=eastwest;newEdgeStyle={&quot;curved&quot;:0,&quot;rounded&quot;:0};participant=umlBoundary;fillColor=#d5e8d4;strokeColor=#82b366;" vertex="1" parent="1">
          <mxGeometry x="210" y="50" width="50" height="300" as="geometry" />
        </mxCell>
        <mxCell id="cExaiCOgp9dejYTTrhLU-8" value="" style="html=1;points=[[0,0,0,0,5],[0,1,0,0,-5],[1,0,0,0,5],[1,1,0,0,-5]];perimeter=orthogonalPerimeter;outlineConnect=0;targetShapes=umlLifeline;portConstraint=eastwest;newEdgeStyle={&quot;curved&quot;:0,&quot;rounded&quot;:0};" vertex="1" parent="cExaiCOgp9dejYTTrhLU-7">
          <mxGeometry x="20" y="87.5" width="10" height="52.5" as="geometry" />
        </mxCell>
        <mxCell id="cExaiCOgp9dejYTTrhLU-9" value="" style="shape=umlLifeline;perimeter=lifelinePerimeter;whiteSpace=wrap;html=1;container=1;dropTarget=0;collapsible=0;recursiveResize=0;outlineConnect=0;portConstraint=eastwest;newEdgeStyle={&quot;curved&quot;:0,&quot;rounded&quot;:0};participant=umlBoundary;fillColor=#d5e8d4;strokeColor=#82b366;" vertex="1" parent="1">
          <mxGeometry x="330" y="50" width="50" height="300" as="geometry" />
        </mxCell>
        <mxCell id="cExaiCOgp9dejYTTrhLU-10" value="" style="html=1;points=[[0,0,0,0,5],[0,1,0,0,-5],[1,0,0,0,5],[1,1,0,0,-5]];perimeter=orthogonalPerimeter;outlineConnect=0;targetShapes=umlLifeline;portConstraint=eastwest;newEdgeStyle={&quot;curved&quot;:0,&quot;rounded&quot;:0};" vertex="1" parent="cExaiCOgp9dejYTTrhLU-9">
          <mxGeometry x="20" y="92.5" width="10" height="37.5" as="geometry" />
        </mxCell>
        <mxCell id="cExaiCOgp9dejYTTrhLU-15" value="" style="html=1;points=[[0,0,0,0,5],[0,1,0,0,-5],[1,0,0,0,5],[1,1,0,0,-5]];perimeter=orthogonalPerimeter;outlineConnect=0;targetShapes=umlLifeline;portConstraint=eastwest;newEdgeStyle={&quot;curved&quot;:0,&quot;rounded&quot;:0};" vertex="1" parent="cExaiCOgp9dejYTTrhLU-9">
          <mxGeometry x="20" y="220" width="10" height="60" as="geometry" />
        </mxCell>
        <mxCell id="cExaiCOgp9dejYTTrhLU-11" value="" style="shape=umlLifeline;perimeter=lifelinePerimeter;whiteSpace=wrap;html=1;container=1;dropTarget=0;collapsible=0;recursiveResize=0;outlineConnect=0;portConstraint=eastwest;newEdgeStyle={&quot;curved&quot;:0,&quot;rounded&quot;:0};participant=umlEntity;fillColor=#dae8fc;strokeColor=#6c8ebf;" vertex="1" parent="1">
          <mxGeometry x="580" y="50" width="40" height="300" as="geometry" />
        </mxCell>
        <mxCell id="cExaiCOgp9dejYTTrhLU-19" value="" style="html=1;points=[[0,0,0,0,5],[0,1,0,0,-5],[1,0,0,0,5],[1,1,0,0,-5]];perimeter=orthogonalPerimeter;outlineConnect=0;targetShapes=umlLifeline;portConstraint=eastwest;newEdgeStyle={&quot;curved&quot;:0,&quot;rounded&quot;:0};" vertex="1" parent="cExaiCOgp9dejYTTrhLU-11">
          <mxGeometry x="15" y="230" width="10" height="50" as="geometry" />
        </mxCell>
        <mxCell id="cExaiCOgp9dejYTTrhLU-12" value="" style="shape=umlLifeline;perimeter=lifelinePerimeter;whiteSpace=wrap;html=1;container=1;dropTarget=0;collapsible=0;recursiveResize=0;outlineConnect=0;portConstraint=eastwest;newEdgeStyle={&quot;curved&quot;:0,&quot;rounded&quot;:0};participant=umlControl;fillColor=#f8cecc;strokeColor=#b85450;" vertex="1" parent="1">
          <mxGeometry x="450" y="50" width="40" height="300" as="geometry" />
        </mxCell>
        <mxCell id="cExaiCOgp9dejYTTrhLU-16" value="" style="html=1;points=[[0,0,0,0,5],[0,1,0,0,-5],[1,0,0,0,5],[1,1,0,0,-5]];perimeter=orthogonalPerimeter;outlineConnect=0;targetShapes=umlLifeline;portConstraint=eastwest;newEdgeStyle={&quot;curved&quot;:0,&quot;rounded&quot;:0};" vertex="1" parent="cExaiCOgp9dejYTTrhLU-12">
          <mxGeometry x="15" y="230" width="10" height="30" as="geometry" />
        </mxCell>
        <mxCell id="cExaiCOgp9dejYTTrhLU-21" value="メニュー画面" style="text;strokeColor=none;align=center;fillColor=none;html=1;verticalAlign=middle;whiteSpace=wrap;rounded=0;" vertex="1" parent="1">
          <mxGeometry x="205" y="90" width="60" height="30" as="geometry" />
        </mxCell>
        <mxCell id="cExaiCOgp9dejYTTrhLU-22" value="学生登録画面" style="text;strokeColor=none;align=center;fillColor=none;html=1;verticalAlign=middle;whiteSpace=wrap;rounded=0;" vertex="1" parent="1">
          <mxGeometry x="325" y="90" width="60" height="30" as="geometry" />
        </mxCell>
        <mxCell id="cExaiCOgp9dejYTTrhLU-23" value="学生情報登録" style="text;strokeColor=none;align=center;fillColor=none;html=1;verticalAlign=middle;whiteSpace=wrap;rounded=0;" vertex="1" parent="1">
          <mxGeometry x="440" y="90" width="60" height="30" as="geometry" />
        </mxCell>
        <mxCell id="cExaiCOgp9dejYTTrhLU-24" value="学生オブジェクト" style="text;strokeColor=none;align=center;fillColor=none;html=1;verticalAlign=middle;whiteSpace=wrap;rounded=0;" vertex="1" parent="1">
          <mxGeometry x="570" y="90" width="60" height="30" as="geometry" />
        </mxCell>
        <mxCell id="cExaiCOgp9dejYTTrhLU-26" value="" style="html=1;points=[[0,0,0,0,5],[0,1,0,0,-5],[1,0,0,0,5],[1,1,0,0,-5]];perimeter=orthogonalPerimeter;outlineConnect=0;targetShapes=umlLifeline;portConstraint=eastwest;newEdgeStyle={&quot;curved&quot;:0,&quot;rounded&quot;:0};" vertex="1" parent="1">
          <mxGeometry x="100" y="460" width="10" height="80" as="geometry" />
        </mxCell>
        <mxCell id="cExaiCOgp9dejYTTrhLU-27" value="" style="endArrow=none;dashed=1;endFill=0;endSize=12;html=1;rounded=0;" edge="1" parent="1">
          <mxGeometry width="160" relative="1" as="geometry">
            <mxPoint x="234.44" y="460" as="sourcePoint" />
            <mxPoint x="234.44" y="540" as="targetPoint" />
          </mxGeometry>
        </mxCell>
        <mxCell id="cExaiCOgp9dejYTTrhLU-29" value="活性区間&lt;div&gt;Activation Bar&lt;/div&gt;" style="text;html=1;align=center;verticalAlign=middle;resizable=0;points=[];autosize=1;strokeColor=none;fillColor=none;" vertex="1" parent="1">
          <mxGeometry x="105" y="460" width="100" height="40" as="geometry" />
        </mxCell>
        <mxCell id="cExaiCOgp9dejYTTrhLU-30" value="生存線&lt;div&gt;Life Line&lt;/div&gt;" style="text;html=1;align=center;verticalAlign=middle;resizable=0;points=[];autosize=1;strokeColor=none;fillColor=none;" vertex="1" parent="1">
          <mxGeometry x="230" y="460" width="70" height="40" as="geometry" />
        </mxCell>
        <mxCell id="cExaiCOgp9dejYTTrhLU-31" value="操作（）&lt;div&gt;Method&lt;/div&gt;&lt;div&gt;&lt;br&gt;&lt;/div&gt;" style="html=1;verticalAlign=bottom;endArrow=block;curved=0;rounded=0;" edge="1" parent="1">
          <mxGeometry width="80" relative="1" as="geometry">
            <mxPoint x="315" y="510" as="sourcePoint" />
            <mxPoint x="395" y="510" as="targetPoint" />
          </mxGeometry>
        </mxCell>
        <mxCell id="cExaiCOgp9dejYTTrhLU-32" value="&lt;div&gt;メッセージ&lt;/div&gt;Message" style="text;html=1;align=center;verticalAlign=middle;resizable=0;points=[];autosize=1;strokeColor=none;fillColor=none;" vertex="1" parent="1">
          <mxGeometry x="410" y="460" width="80" height="40" as="geometry" />
        </mxCell>
        <mxCell id="cExaiCOgp9dejYTTrhLU-34" value="&lt;font style=&quot;font-size: 9px;&quot;&gt;学生登録を選択（）&lt;/font&gt;" style="html=1;verticalAlign=bottom;endArrow=block;curved=0;rounded=0;entryX=0.071;entryY=0.006;entryDx=0;entryDy=0;entryPerimeter=0;" edge="1" parent="1" source="cExaiCOgp9dejYTTrhLU-5" target="cExaiCOgp9dejYTTrhLU-8">
          <mxGeometry width="80" relative="1" as="geometry">
            <mxPoint x="125" y="140" as="sourcePoint" />
            <mxPoint x="205" y="140" as="targetPoint" />
          </mxGeometry>
        </mxCell>
        <mxCell id="cExaiCOgp9dejYTTrhLU-35" value="&lt;font size=&quot;1&quot;&gt;表示（）&lt;/font&gt;" style="html=1;verticalAlign=bottom;endArrow=block;curved=0;rounded=0;entryX=-0.1;entryY=-0.011;entryDx=0;entryDy=0;entryPerimeter=0;exitX=1;exitY=0;exitDx=0;exitDy=5;exitPerimeter=0;" edge="1" parent="1" source="cExaiCOgp9dejYTTrhLU-8" target="cExaiCOgp9dejYTTrhLU-10">
          <mxGeometry width="80" relative="1" as="geometry">
            <mxPoint x="240" y="150" as="sourcePoint" />
            <mxPoint x="346" y="150" as="targetPoint" />
          </mxGeometry>
        </mxCell>
        <mxCell id="cExaiCOgp9dejYTTrhLU-36" value="&lt;font style=&quot;font-size: 9px;&quot;&gt;学生データ登録（）&lt;/font&gt;" style="html=1;verticalAlign=bottom;endArrow=block;curved=0;rounded=0;entryX=-0.056;entryY=-0.01;entryDx=0;entryDy=0;entryPerimeter=0;" edge="1" parent="1" source="cExaiCOgp9dejYTTrhLU-16" target="cExaiCOgp9dejYTTrhLU-19">
          <mxGeometry width="80" relative="1" as="geometry">
            <mxPoint x="480" y="280" as="sourcePoint" />
            <mxPoint x="586" y="280" as="targetPoint" />
          </mxGeometry>
        </mxCell>
        <mxCell id="cExaiCOgp9dejYTTrhLU-37" value="&lt;font style=&quot;font-size: 9px;&quot;&gt;起動（）&lt;/font&gt;" style="html=1;verticalAlign=bottom;endArrow=block;curved=0;rounded=0;entryX=-0.056;entryY=-0.042;entryDx=0;entryDy=0;entryPerimeter=0;" edge="1" parent="1" source="cExaiCOgp9dejYTTrhLU-15" target="cExaiCOgp9dejYTTrhLU-16">
          <mxGeometry x="0.0054" width="80" relative="1" as="geometry">
            <mxPoint x="360" y="280" as="sourcePoint" />
            <mxPoint x="467" y="280" as="targetPoint" />
            <mxPoint as="offset" />
          </mxGeometry>
        </mxCell>
        <mxCell id="cExaiCOgp9dejYTTrhLU-38" value="&lt;font size=&quot;1&quot;&gt;学生データ入力（）&lt;/font&gt;" style="html=1;verticalAlign=bottom;endArrow=block;curved=0;rounded=0;" edge="1" parent="1" source="cExaiCOgp9dejYTTrhLU-6">
          <mxGeometry x="-0.5111" width="80" relative="1" as="geometry">
            <mxPoint x="124" y="260" as="sourcePoint" />
            <mxPoint x="350" y="270" as="targetPoint" />
            <mxPoint as="offset" />
          </mxGeometry>
        </mxCell>
        <mxCell id="cExaiCOgp9dejYTTrhLU-39" value="&lt;b&gt;&lt;font style=&quot;font-size: 15px;&quot;&gt;時間の流れ&lt;/font&gt;&lt;/b&gt;" style="html=1;verticalAlign=bottom;startArrow=none;startFill=0;endArrow=block;startSize=8;curved=0;rounded=0;strokeWidth=5;" edge="1" parent="1">
          <mxGeometry x="1" y="40" width="60" relative="1" as="geometry">
            <mxPoint x="60" y="50" as="sourcePoint" />
            <mxPoint x="60" y="351.25" as="targetPoint" />
            <mxPoint x="-40" y="40" as="offset" />
          </mxGeometry>
        </mxCell>
      </root>
    </mxGraphModel>
  </diagram>
</mxfile>
